<svg xmlns="http://www.w3.org/2000/svg" xmlns:xlink="http://www.w3.org/1999/xlink" viewBox="0 0 85 85" fill="#fff" fill-rule="evenodd" stroke="#000" stroke-linecap="round" stroke-linejoin="round"><style><![CDATA[.B{stroke:none}.C{fill:#f58536}]]></style><use xlink:href="#A" x="2.5" y="2.5"/><symbol id="A" overflow="visible"><g fill="#9d5025" class="B"><path d="M0 41.58C0 20.293 17.84 3.157 40 3.157S80 20.293 80 41.58 62.16 80 40 80 0 62.864 0 41.58z"/><path d="M0 38.422h80v3.157H0z"/></g><path d="M0 38.422C0 17.136 17.84 0 40 0s40 17.136 40 38.422-17.84 38.422-40 38.422S0 59.707 0 38.422z" class="B C"/><path d="M42.59 34.255h-5.166l-2.774-22.89h10.713l-2.774 22.89z" class="B"/><path d="M63.135 51.11l2.064-1.64-7.48-10.732-16.38-5.492L40 41.932l14.762 1.326 8.373 7.853z" class="B"/><path d="M16.865 51.1l-2.05-1.64 7.466-10.732 16.38-5.492L40 41.932l-14.762 1.326-8.373 7.853zm15.708-39.746c0-3.952 3.312-7.134 7.427-7.134s7.427 3.182 7.427 7.134-3.312 7.134-7.427 7.134-7.427-3.182-7.427-7.134z" class="B"/><path d="M40 19.13c-4.465 0-8.084-3.477-8.084-7.765S35.535 3.6 40 3.6s8.084 3.476 8.084 7.765c-.007 4.286-3.622 7.758-8.084 7.765zm0-14.268c3.74 0 6.77 2.9 6.77 6.503s-3.03 6.502-6.77 6.502-6.77-2.9-6.77-6.502S36.26 4.862 40 4.862h0zm-2.432 6.502c0-1.294 1.085-2.336 2.432-2.336s2.432 1.042 2.432 2.336S41.347 13.7 40 13.7s-2.432-1.042-2.432-2.336z" class="B C"/><path d="M34.65 37.5c0-2.847 2.386-5.14 5.35-5.14s5.35 2.292 5.35 5.14-2.386 5.14-5.35 5.14-5.35-2.292-5.35-5.14z" class="B"/><path d="M40 43.27c-3.312-.007-5.994-2.588-5.994-5.77s2.682-5.763 5.994-5.77 6.006 2.563 6.02 5.745c.004 1.536-.63 3-1.76 4.097S41.6 43.27 40 43.27zm0-10.3c2.592-.007 4.7 2.005 4.706 4.495s-2.088 4.513-4.68 4.52S35.328 40 35.32 37.5s2.088-4.513 4.68-4.52zm-1.643 4.53c0-.874.733-1.578 1.643-1.578s1.643.704 1.643 1.578S40.9 39.08 40 39.08s-1.643-.704-1.643-1.578z" class="B C"/><path d="M22.74 49.344h34.52v18.32H22.74z" class="B"/><g fill="#fbbf93"><use xlink:href="#C" class="B"/><use xlink:href="#C" x="4.732" class="B"/><use xlink:href="#C" x="9.477" class="B"/><use xlink:href="#C" x="14.21" class="B"/><use xlink:href="#C" x="18.942" class="B"/><use xlink:href="#C" x="23.687" class="B"/><use xlink:href="#C" x="28.419" class="B"/></g></symbol><defs ><path id="C" d="M24.476 50.82h2.63v15.366h-2.63z"/></defs></svg>