<svg xmlns="http://www.w3.org/2000/svg" xmlns:xlink="http://www.w3.org/1999/xlink" viewBox="0 0 81 71" fill="#fff" fill-rule="evenodd" stroke="#000" stroke-linecap="round" stroke-linejoin="round"><use xlink:href="#B" x=".5"/><defs><linearGradient id="A" x1="50%" y1="0%" x2="50%" y2="100%"><stop offset="0%" stop-color="#4387fd"/><stop offset="100%" stop-color="#4683ea"/></linearGradient></defs><symbol id="B" overflow="visible"><g stroke="none"><path d="M79.25 37.5q1.5-2.5 0-5L61.5 2q-1.5-2-4-2h-35q-2.5 0-4 2L.75 32.5q-1.5 2.5 0 5L18.5 68q1.5 2 4 2h35q2.5 0 4-2z" fill="url(#A)"/><path d="M57.5 70h-8.75l-32-32 6.75-7 3.5 3.5L32.5 24l7.5-2.5-3.25-3.25 4.5-6.5 33.494 33.494L61.5 68q-1.5 2-4 2z" fill="#000" fill-opacity=".1"/><path d="M23.236 38h-6.332q-.787 0-.787-1.192v-2.145q0-.953.787-1.192L23.5 31a17.24 17.24 0 0 0-.498 4.139A17.45 17.45 0 0 0 23.236 38zm2.264-3A14.47 14.47 0 0 1 40 20.5 14.47 14.47 0 0 1 54.5 35 14.47 14.47 0 0 1 40 49.5 14.47 14.47 0 0 1 25.5 35zm3.383 0c0-6.16 4.958-11.117 11.117-11.117S51.117 28.84 51.117 35A11.09 11.09 0 0 1 40 46.117 11.09 11.09 0 0 1 28.883 35zm16.057-5l-1.42 1.4c-.893-.84-2.097-1.35-3.425-1.35a4.99 4.99 0 0 0-5 5c0 1.315.502 2.508 1.327 3.4L35 39.87a6.98 6.98 0 0 0 5.094 2.19c3.878 0 7-3.122 7-7A6.98 6.98 0 0 0 44.941 30zm-4.846 2.06c-1.662 0-3 1.338-3 3s1.338 3 3 3 3-1.338 3-3-1.338-3-3-3zM56.88 38h6.332Q64 38 64 36.808v-2.145q0-.953-.787-1.192L56.617 31a17.24 17.24 0 0 1 .498 4.139A17.45 17.45 0 0 1 56.881 38zM43.75 18.25a14.2 14.2 0 0 0-3.789-.509c-1.2 0-2.362.147-3.46.422l2.202-6.357q.2-.556.84-.556h.84q.63 0 .84.556z"/></g></symbol></svg>