<svg xmlns="http://www.w3.org/2000/svg" xmlns:xlink="http://www.w3.org/1999/xlink" viewBox="0 0 81 71" fill="#fff" fill-rule="evenodd" stroke="#000" stroke-linecap="round" stroke-linejoin="round"><use xlink:href="#B" x=".5"/><defs><linearGradient id="A" x1="50%" y1="0%" x2="50%" y2="100%"><stop offset="0%" stop-color="#4387fd"/><stop offset="100%" stop-color="#4683ea"/></linearGradient></defs><symbol id="B" overflow="visible"><g stroke="none"><path d="M79.25 37.5q1.5-2.5 0-5L61.5 2q-1.5-2-4-2h-35q-2.5 0-4 2L.75 32.5q-1.5 2.5 0 5L18.5 68q1.5 2 4 2h35q2.5 0 4-2z" fill="url(#A)"/><path d="M74.192 46.192L61.5 68q-1.5 2-4 2h-8.75L24.5 45.75l4-3.25V35l7.25-.75L30.5 29l19.25-7.25z" fill="#000" fill-opacity=".07"/><path d="M41.25 40h2.5q.75 0 .75.75v4.5q0 .75-.75.75h-7.5q-.75 0-.75-.75v-4.5q0-.75.75-.75h2.5v-4.25H30V40h1.75q.75 0 .75.75v4.5q0 .75-.75.75H25q-.75 0-.75-.75v-4.5q0-.75.75-.75h2.5v-6q0-.75.75-.75h10.5V29h-8q-.75 0-.75-.75v-6q0-.75.75-.75h18.5q.75 0 .75.75v6q0 .75-.75.75h-8v4.25H51.5q1 0 1 .75v6H55q.75 0 .75.75v4.5q0 .75-.75.75h-6.75q-.75 0-.75-.75v-4.5q0-.75.75-.75H50v-4.25h-8.75z"/></g></symbol></svg>