<svg xmlns="http://www.w3.org/2000/svg" xmlns:xlink="http://www.w3.org/1999/xlink" viewBox="0 0 81 71" fill="#fff" fill-rule="evenodd" stroke="#000" stroke-linecap="round" stroke-linejoin="round"><use xlink:href="#B" x=".5"/><defs><linearGradient id="A" x1="50%" y1="0%" x2="50%" y2="100%"><stop offset="0%" stop-color="#4387fd"/><stop offset="100%" stop-color="#4683ea"/></linearGradient></defs><symbol id="B" overflow="visible"><g stroke="none"><path d="M79.25 37.5q1.5-2.5 0-5L61.5 2q-1.5-2-4-2h-35q-2.5 0-4 2L.75 32.5q-1.5 2.5 0 5L18.5 68q1.5 2 4 2h35q2.5 0 4-2z" fill="url(#A)"/><path d="M57.5 70H44L20.25 46.25 22 25l7-6.5 6.25 6.25H45l12.5 12.5V29.5L51 23l8.75.5 17.477 17.477L61.5 68q-1.5 2-4 2z" fill="#000" fill-opacity=".07"/><path d="M59.75 46.25V23.5l-8.75-5V23l5 2.75v18.5L51.25 47v4.25zm-18-4V36.5l5-3 5 3V42l-5 3zM35 30.5v-5.75l5-3 5 3v5.5l-5 3zm-6.75 11.75V36.5l5-3 5 3V42l-5 3zm-8 4V23.5l8.75-5V23l-5 2.75v18.5L28.75 47v4.25z"/></g></symbol></svg>