<svg xmlns="http://www.w3.org/2000/svg" xmlns:xlink="http://www.w3.org/1999/xlink" viewBox="0 0 81 71" fill="#fff" fill-rule="evenodd" stroke="#000" stroke-linecap="round" stroke-linejoin="round"><use xlink:href="#B" x=".5"/><defs><linearGradient id="A" x1="50%" y1="0%" x2="50%" y2="100%"><stop offset="0%" stop-color="#4387fd"/><stop offset="100%" stop-color="#4683ea"/></linearGradient></defs><symbol id="B" overflow="visible"><g stroke="none"><path d="M79.25 37.5q1.5-2.5 0-5L61.5 2q-1.5-2-4-2h-35q-2.5 0-4 2L.75 32.5q-1.5 2.5 0 5L18.5 68q1.5 2 4 2h35q2.5 0 4-2z" fill="url(#A)"/><path d="M57.5 70h-8l-25-25V26.25L40 20l16 6 18.928 18.927L61.5 68q-1.5 2-4 2z" fill="#000" fill-opacity=".07"/><path d="M41 53.5l14-8q1.5-1 1.5-2.25V27.5q0-1.5-1.5-2.5l-14-8q-1-.5-2 0l-14 8q-1.5 1-1.5 2.5v15.75q0 1.25 1.5 2.25l14 8q1 .5 2 0zm-.212-3.696l11.03-6.27Q53 42.75 53 41.77V29.426q0-1.176-1.182-1.96l-11.03-6.27q-.788-.392-1.576 0l-11.03 6.27Q27 28.25 27 29.426V41.77q0 .98 1.182 1.763l11.03 6.27q.788.392 1.576 0z"/><path d="M47.75 30L41 26v-6h-2v6l-6.75 4L40 34.5zm-16.215 1.25l-.1 7.846-5.196 3 1 1.732 5.196-3 6.84 3.846.022-8.962zm9.237 13.5l6.84-3.846 5.196 3 1-1.732-5.196-3-.1-7.846-7.772 4.462z"/></g></symbol></svg>