<svg xmlns="http://www.w3.org/2000/svg" xmlns:xlink="http://www.w3.org/1999/xlink" viewBox="0 0 85 85" fill="#fff" fill-rule="evenodd" stroke="#000" stroke-linecap="round" stroke-linejoin="round"><use xlink:href="#A" x="2.5" y="2.5"/><symbol id="A" overflow="visible"><g fill="#9d5025" stroke="none"><path d="M0 41.58C0 20.293 17.84 3.157 40 3.157S80 20.293 80 41.58 62.16 80 40 80 0 62.864 0 41.58z"/><path d="M0 38.422h80v3.157H0z"/></g><path d="M0 38.422C0 17.136 17.84 0 40 0s40 17.136 40 38.422-17.84 38.422-40 38.422S0 59.707 0 38.422z" fill="#f58536" stroke="none"/><path d="M9.846 42.235v-.972c.292-4.556 3.12-8.607 7.4-10.593.354-6.873 5.368-12.706 12.328-14.34s14.2 1.317 17.827 7.258c2.496-1.02 5.338-.9 7.73.326s4.08 3.428 4.586 5.987c6.034 1.136 10.385 6.68 10.385 11.364v.922c0 5.682-6.126 10.67-13.145 10.67H22.912c-6.94.05-13.066-4.937-13.066-10.618z" stroke="none"/><path d="M48.216 27.677l-2.55 1.68-1.315-2.702c-1.932-4.14-6.2-6.818-10.923-6.856-3.2 0-6.267 1.222-8.528 3.396s-3.53 5.122-3.526 8.195v2.147l-1.893.53c-3.1 1.203-5.246 3.988-5.52 7.197v.922c0 3.12 3.944 6.742 9.004 6.742H57.09c5.06 0 8.99-3.624 8.99-6.742v-.922c0-3.13-3.64-7.26-7.887-7.576l-2.287-.177-.13-2.172c-.063-1.69-1.08-3.214-2.655-3.974s-3.453-.635-4.904.325z" fill="#f58536" stroke="none"/></symbol></svg>